<?xml version="1.0" standalone="no"?>
<!DOCTYPE svg PUBLIC "-//W3C//DTD SVG 20010904//EN"
 "http://www.w3.org/TR/2001/REC-SVG-20010904/DTD/svg10.dtd">
<svg version="1.0" xmlns="http://www.w3.org/2000/svg"
 width="1200.000000pt" height="1200.000000pt" viewBox="0 0 1200.000000 1200.000000"
 preserveAspectRatio="xMidYMid meet">

<g transform="translate(0.000000,1200.000000) scale(0.100000,-0.100000)"
fill="#000000" stroke="none">
<path d="M3145 9991 c-82 -28 -124 -85 -239 -323 l-76 -157 -313 -154 c-332
-164 -367 -181 -589 -281 -32 -14 -82 -37 -110 -50 -29 -13 -75 -34 -103 -46
-71 -31 -292 -143 -340 -171 -88 -52 -155 -112 -186 -165 -39 -68 -168 -241
-269 -359 -42 -49 -93 -117 -113 -150 -66 -111 -166 -198 -315 -278 -76 -41
-81 -45 -65 -59 55 -48 167 -85 321 -104 116 -14 152 -15 251 -5 244 25 342
41 501 80 47 12 105 27 130 32 25 6 49 15 55 20 5 5 16 9 25 9 8 0 28 7 44 15
15 8 33 15 38 15 24 0 214 94 293 145 62 40 106 82 141 134 29 44 25 68 -7 50
-31 -16 -223 -39 -469 -54 -372 -24 -631 -38 -635 -33 -5 5 54 117 161 307
l59 104 170 42 c189 46 304 80 352 101 17 8 36 14 42 14 6 0 25 6 43 14 18 8
49 21 70 30 20 9 39 16 43 16 3 0 27 9 53 21 26 11 63 27 82 35 19 9 44 19 55
24 127 55 336 162 477 245 9 6 41 24 70 41 29 18 88 57 131 88 43 31 80 56 81
56 2 0 6 -12 9 -27 10 -46 43 -90 74 -97 15 -4 84 -35 153 -69 l125 -62 178
-1 179 -1 2 -52 c1 -41 7 -56 29 -78 24 -24 37 -28 109 -33 74 -4 89 -9 138
-41 70 -46 149 -69 238 -69 72 0 207 23 226 39 6 5 70 11 141 14 120 5 184 18
268 52 15 6 17 0 17 -54 0 -78 25 -192 56 -253 33 -65 73 -108 167 -179 74
-55 229 -139 260 -139 6 0 24 -6 39 -14 15 -8 41 -17 59 -21 19 -4 40 -11 49
-16 8 -4 76 -26 150 -49 74 -22 143 -45 152 -50 10 -6 23 -10 28 -10 6 0 31
-9 55 -20 38 -17 46 -26 56 -63 14 -50 44 -161 65 -237 20 -70 52 -169 63
-195 100 -226 180 -346 344 -514 194 -197 458 -371 792 -520 39 -18 78 -36 87
-41 10 -6 23 -10 30 -10 7 -1 31 -9 53 -20 22 -11 47 -19 56 -20 8 0 19 -4 25
-9 5 -4 27 -13 49 -19 22 -6 72 -20 110 -32 88 -26 198 -48 295 -61 41 -5 103
-14 136 -19 151 -25 341 -1 472 58 28 13 44 13 100 3 37 -6 105 -16 152 -22
533 -66 556 -75 765 -300 33 -35 88 -100 122 -144 34 -44 92 -105 128 -135 37
-30 91 -86 122 -123 30 -38 57 -67 58 -65 2 2 -10 46 -26 99 -28 87 -38 104
-130 219 -55 69 -133 162 -174 206 -69 76 -348 314 -401 342 -41 22 -263 78
-434 111 -91 17 -194 37 -230 46 -36 8 -132 28 -215 45 -379 77 -623 167 -789
289 -34 24 -89 55 -124 67 -35 12 -66 24 -69 28 -4 3 -13 6 -21 6 -8 0 -28 6
-45 14 -18 7 -61 24 -97 36 -59 21 -119 45 -175 70 -11 5 -49 21 -85 36 -399
162 -651 364 -844 675 -49 79 -58 103 -26 74 27 -24 94 -24 121 1 78 71 59
186 -45 264 -44 33 -101 63 -191 100 -149 60 -482 135 -740 166 -64 8 -86 22
-133 87 -61 83 -78 145 -73 283 1 26 10 53 26 75 45 62 56 88 49 114 -7 30
-57 59 -88 51 -11 -3 -74 -37 -138 -75 -156 -93 -288 -154 -288 -134 0 5 13
16 29 26 50 29 148 143 181 210 50 101 52 227 5 227 -11 0 -15 11 -15 39 0 28
-8 49 -26 70 -22 26 -33 31 -70 31 -47 0 -38 7 -155 -122 -28 -32 -76 -74
-105 -93 -55 -37 -213 -119 -299 -155 -27 -12 -59 -25 -70 -30 -90 -41 -194
-74 -203 -66 -11 11 53 91 96 119 71 48 90 112 52 175 -43 70 -102 67 -267
-13 -183 -90 -311 -141 -334 -133 -16 5 -48 86 -48 122 -1 32 -21 103 -87 301
-54 162 -72 243 -82 370 -7 105 -12 112 -57 96z"/>
<path d="M4562 8471 c-46 -9 -82 -20 -80 -26 2 -6 47 -10 108 -10 105 0 105 0
108 -25 6 -46 52 -155 86 -201 68 -92 164 -153 336 -212 133 -46 190 -56 190
-33 0 21 -116 96 -195 125 -101 38 -219 99 -261 135 -44 37 -86 115 -105 192
-6 27 -16 55 -22 62 -12 16 -61 14 -165 -7z"/>
<path d="M3265 8076 c-49 -15 -102 -42 -110 -56 -3 -5 9 -1 27 9 59 34 138 46
219 32 315 -52 654 -299 813 -593 131 -243 165 -507 102 -803 -20 -99 -58
-221 -86 -280 -5 -11 -19 -42 -31 -70 -129 -297 -369 -648 -674 -989 -50 -56
-106 -119 -124 -141 -19 -22 -91 -101 -161 -175 -69 -74 -146 -157 -171 -185
-24 -27 -83 -93 -130 -145 -384 -426 -559 -746 -575 -1055 -23 -424 249 -780
804 -1054 56 -27 144 -66 195 -86 50 -20 101 -40 112 -45 11 -4 49 -18 85 -30
36 -12 74 -26 85 -30 11 -5 54 -18 95 -30 41 -12 86 -26 100 -31 14 -5 54 -16
90 -25 36 -8 92 -22 125 -30 33 -9 87 -21 120 -29 33 -7 166 -40 295 -74 212
-54 361 -87 695 -151 319 -62 624 -100 975 -120 102 -5 248 -15 325 -21 260
-20 1178 -1 1465 31 52 5 147 15 210 20 345 31 766 96 1008 155 203 50 289 72
317 84 11 5 40 17 65 27 25 9 63 25 85 34 22 10 56 23 75 31 19 8 109 52 200
98 91 47 212 108 270 137 58 29 102 53 98 53 -4 1 -49 -10 -100 -24 -93 -25
-199 -44 -403 -71 -320 -43 -302 -40 -620 -100 -44 -9 -118 -22 -165 -30 -47
-9 -121 -22 -165 -30 -288 -52 -764 -104 -1125 -123 -620 -34 -852 -34 -1460
-1 -347 19 -674 57 -825 96 -33 8 -87 21 -120 29 -82 19 -169 41 -235 59 -30
9 -111 30 -180 48 -69 19 -129 36 -135 40 -5 3 -26 9 -45 12 -19 4 -44 11 -55
16 -11 5 -54 18 -95 30 -41 12 -84 25 -95 30 -11 4 -60 20 -110 35 -49 15 -94
31 -99 36 -6 5 -16 9 -24 9 -8 0 -28 6 -45 14 -18 7 -61 24 -97 36 -36 13 -69
26 -75 30 -5 4 -28 13 -50 20 -22 7 -44 16 -50 20 -5 4 -21 11 -35 15 -40 13
-143 61 -314 146 -333 167 -567 355 -654 526 -35 69 -46 161 -32 256 11 65 25
106 71 197 90 178 162 273 584 775 454 539 675 870 876 1310 54 119 117 326
154 510 21 103 31 406 16 500 -24 157 -33 191 -84 325 -117 306 -396 583 -719
715 -35 14 -72 30 -83 35 -121 52 -311 74 -400 46z"/>
<path d="M11564 7484 c-34 -155 -56 -211 -156 -409 -113 -223 -325 -566 -482
-779 -234 -317 -635 -749 -937 -1007 -338 -290 -582 -473 -895 -671 -66 -42
-137 -86 -157 -97 -20 -12 -54 -30 -74 -42 -21 -12 -42 -25 -48 -29 -36 -28
-343 -181 -525 -263 -51 -23 -276 -111 -335 -132 -27 -9 -59 -21 -70 -25 -28
-12 -121 -40 -180 -56 -27 -7 -77 -20 -110 -29 -195 -53 -295 -72 -560 -105
-171 -21 -424 -5 -560 36 -93 29 -178 77 -236 137 -84 84 -149 231 -149 338 0
56 -7 79 -26 79 -15 0 -28 -41 -45 -147 -26 -157 41 -368 153 -484 69 -71 107
-99 193 -142 138 -69 262 -100 490 -123 132 -12 184 -13 295 -4 212 18 437 48
501 68 19 6 52 13 74 17 22 3 54 10 70 15 17 5 53 16 80 23 139 40 208 62 285
89 482 170 984 435 1455 767 198 140 422 314 532 414 32 29 74 65 93 81 44 35
223 211 355 347 394 409 712 890 863 1309 43 119 71 237 92 385 10 66 29 456
24 464 -2 2 -6 -10 -10 -25z"/>
<path d="M5779 7168 c72 -185 216 -404 347 -529 75 -71 205 -167 308 -228 74
-43 269 -141 282 -141 3 0 24 -8 47 -19 159 -70 414 -147 637 -190 228 -45
298 -52 530 -55 107 -2 213 -6 235 -10 29 -6 36 -5 25 3 -8 6 -26 11 -40 12
-14 1 -6 5 20 9 l45 7 -41 1 c-23 1 -66 7 -95 13 -30 6 -94 17 -144 25 -414
68 -523 89 -739 143 -147 37 -333 93 -416 125 -35 14 -117 47 -174 69 -76 31
-250 125 -336 182 -206 138 -354 310 -461 538 -30 64 -48 91 -30 45z"/>
<path d="M8220 6000 c8 -5 31 -10 51 -10 124 0 461 -128 619 -235 30 -20 68
-44 84 -52 l30 -16 -18 29 c-62 97 -187 177 -356 229 -47 14 -98 30 -115 35
-28 9 -230 30 -285 30 -20 0 -22 -2 -10 -10z"/>
</g>
</svg>
